<mxfile host="app.diagrams.net" modified="2023-12-15T10:12:06.020Z" agent="Mozilla/5.0 (Windows NT 10.0; Win64; x64) AppleWebKit/537.36 (KHTML, like Gecko) Chrome/115.0.0.0 Safari/537.36" version="22.1.9" etag="LnZmRBb5B6ILVzMUw6y3" type="github">
  <diagram name="Page-1" id="PS6vIGwWLL1ZK06r_UIl">
    <mxGraphModel>
      <root>
        <mxCell id="0" />
        <mxCell id="1" parent="0" />
      </root>
    </mxGraphModel>
  </diagram>
</mxfile>
